<?xml version="1.0" encoding="UTF-8" standalone="no"?>
<svg
   xmlns:dc="http://purl.org/dc/elements/1.1/"
   xmlns:cc="http://creativecommons.org/ns#"
   xmlns:rdf="http://www.w3.org/1999/02/22-rdf-syntax-ns#"
   xmlns:svg="http://www.w3.org/2000/svg"
   xmlns="http://www.w3.org/2000/svg"
   xmlns:sodipodi="http://sodipodi.sourceforge.net/DTD/sodipodi-0.dtd"
   xmlns:inkscape="http://www.inkscape.org/namespaces/inkscape"
   width="680.10706"
   height="223.6886"
   viewBox="0 0 179.94499 59.184277"
   version="1.1"
   id="svg8"
   inkscape:version="1.0.2 (1.0.2+r75+1)"
   sodipodi:docname="logo-gray.svg">
  <defs
     id="defs2">
    <filter
       style="color-interpolation-filters:sRGB"
       inkscape:label="Roughen"
       id="filter950">
      <feTurbulence
         type="fractalNoise"
         numOctaves="2"
         seed="36"
         baseFrequency="0.5444 0.4901"
         result="turbulence"
         id="feTurbulence946" />
      <feDisplacementMap
         in="SourceGraphic"
         in2="turbulence"
         scale="3.53261"
         yChannelSelector="G"
         xChannelSelector="R"
         id="feDisplacementMap948" />
    </filter>
    <filter
       style="color-interpolation-filters:sRGB"
       inkscape:label="Roughen"
       id="filter966">
      <feTurbulence
         type="turbulence"
         numOctaves="3"
         seed="36"
         baseFrequency="0.6531 0.6531"
         result="turbulence"
         id="feTurbulence962" />
      <feDisplacementMap
         in="SourceGraphic"
         in2="turbulence"
         scale="2.2"
         yChannelSelector="G"
         xChannelSelector="R"
         id="feDisplacementMap964" />
    </filter>
  </defs>
  <sodipodi:namedview
     id="base"
     pagecolor="#ffffff"
     bordercolor="#666666"
     borderopacity="1.0"
     inkscape:pageopacity="0.0"
     inkscape:pageshadow="2"
     inkscape:zoom="0.49497474"
     inkscape:cx="577.70035"
     inkscape:cy="386.43586"
     inkscape:document-units="px"
     inkscape:current-layer="layer1"
     showgrid="false"
     units="px"
     inkscape:snap-bbox="true"
     inkscape:bbox-nodes="true"
     inkscape:snap-bbox-edge-midpoints="true"
     inkscape:snap-bbox-midpoints="true"
     inkscape:bbox-paths="true"
     inkscape:object-paths="true"
     inkscape:snap-intersection-paths="true"
     inkscape:snap-smooth-nodes="true"
     inkscape:snap-midpoints="true"
     inkscape:snap-object-midpoints="true"
     inkscape:snap-center="true"
     inkscape:snap-page="true"
     objecttolerance="3"
     gridtolerance="3"
     guidetolerance="3"
     inkscape:window-width="1680"
     inkscape:window-height="970"
     inkscape:window-x="0"
     inkscape:window-y="27"
     inkscape:window-maximized="1"
     inkscape:snap-global="false"
     inkscape:document-rotation="0"
     fit-margin-top="0"
     fit-margin-left="0"
     fit-margin-right="0"
     fit-margin-bottom="0" />
  <metadata
     id="metadata5">
    <rdf:RDF>
      <cc:Work
         rdf:about="">
        <dc:format>image/svg+xml</dc:format>
        <dc:type
           rdf:resource="http://purl.org/dc/dcmitype/StillImage" />
        <dc:title></dc:title>
      </cc:Work>
    </rdf:RDF>
  </metadata>
  <g
     inkscape:label="Camada 1"
     inkscape:groupmode="layer"
     id="layer1"
     transform="translate(-37.158533,-23.986419)">
    <g
       id="g1226"
       transform="translate(-21.602606,-7.4840749)"
       style="fill:#808080">
      <g
         id="g1209"
         style="fill:#808080">
        <path
           inkscape:connector-curvature="0"
           id="path1070"
           style="font-style:normal;font-variant:normal;font-weight:normal;font-stretch:normal;font-size:30.5056px;line-height:1;font-family:'Roman Antique';-inkscape-font-specification:'Roman Antique';text-align:center;letter-spacing:0px;word-spacing:0px;text-anchor:middle;fill:#808080;fill-opacity:1;stroke:none;stroke-width:0.264583"
           d="m 109.54749,52.555912 q -0.37788,-0.906899 -0.68018,-1.209196 0,-0.226734 0.15115,-0.453453 0.22673,-0.302299 0.22673,-0.453448 l -0.45345,-1.587075 q -1.5115,-4.912369 -6.04599,-9.371291 -0.15115,-0.151144 -0.52903,-0.604601 -0.3023,-0.453448 -0.9069,-1.209197 -0.83132,-1.133626 -1.73822,-1.738225 -1.964949,-0.755749 -3.174146,-1.133623 -2.493975,-1.738223 -4.081047,-2.342823 -0.604601,-0.302299 -1.738224,-0.302299 -0.604598,-0.07558 -1.813799,0 -0.680173,0.07557 -1.133625,0.07557 -0.453448,0 -0.604597,0 -0.302301,-0.377874 -0.45345,-0.529024 -0.07557,-0.151145 -0.151144,-0.226733 -0.982475,0.151144 -2.645124,0.453451 -0.906898,0.151144 -1.587073,0.302299 -0.680173,0.07558 -1.209198,0.07558 -2.342823,0 -3.703173,0.453449 -0.604598,0.151145 -3.400871,1.360349 -0.604599,0.151146 -1.058049,0.226735 -0.377874,0.07557 -0.755749,0.151144 -1.05805,0.75575 -1.813798,1.36035 -0.75575,0.529023 -1.284774,0.906899 -2.267249,2.267246 -3.400873,3.778745 -0.226733,0.226732 -0.906898,0.529024 -0.3023,0.151145 -1.133626,1.284774 -0.982474,2.040524 -1.058048,2.720699 -3.325297,5.139096 -3.325297,5.592544 v 6.348295 q 0,0.07557 -0.226733,0.529024 -0.151145,0.453452 -0.151145,0.604601 0,0.982472 1.209198,3.400871 -0.151145,3.627597 0,4.232195 0.151144,0.529027 0.680176,0.831327 0.377874,0.377874 0.377874,1.964947 2.267247,2.1161 3.249722,3.476447 0.680174,2.191675 2.342823,3.400872 0.831324,0.529024 1.587075,1.058048 0.755749,0.529025 1.587071,1.133625 1.05805,0.982476 1.66265,1.435924 0.604599,0.302301 1.511499,0.680175 0.982472,0.377876 2.418398,0.75575 2.569547,0.831323 3.854322,1.360347 1.360346,-0.07557 4.081046,0.377874 1.435924,0.151146 2.493971,0.226734 1.058048,0.151144 1.66265,0.151144 0.529023,0 0.755749,-0.226732 0.302299,-0.226734 0.6046,-0.529024 1.209198,0.22673 1.587072,0.22673 1.36035,0 3.854322,-0.831324 0.982475,-0.377874 1.889374,-0.680173 0.906898,-0.377876 1.813798,-0.75575 0.680177,-0.529024 1.36035,-1.058049 0.680171,-0.529023 1.360351,-1.058048 1.81379,-1.511499 2.19167,-2.569547 2.87185,-2.1161 2.79627,-4.610072 v -0.302302 q 0.9069,-1.133623 1.43593,-1.662647 0.3023,-1.738223 0.3023,-2.947423 0.30229,-0.604599 0.45345,-1.058047 0.22673,-0.302299 0.68017,-2.871847 0.45345,-2.342826 0.45345,-2.947426 0,-0.302299 -0.3023,-0.831322 -0.22673,-0.529026 -0.22673,-0.9069 0,-0.07557 0.22673,-1.133623 0.3023,-1.133625 0.83133,-3.325298 z m -8.99342,9.068992 q 0,0.377877 -0.37788,0.982476 -0.377869,0.604597 -0.377869,1.133621 0,0.302302 0.07558,0.906901 0.07558,0.604599 0.07558,0.9069 0,2.191675 -2.191676,4.610072 -2.116097,2.342822 -2.116097,3.325295 0,2.947424 -4.91237,4.307771 -0.302301,0.302302 -0.529026,0.453451 -0.151145,0.151145 -0.3023,0.302299 -1.662647,0.377874 -3.098572,0.377874 -0.529024,0 -1.587075,-0.377874 -1.058048,-0.453448 -1.511495,-0.453448 -2.418399,0 -2.040525,0.07557 -2.040542,-0.906887 -2.947442,-1.58706 -4.761223,-3.627599 -6.726169,-6.952893 -0.377876,-0.453451 -0.680173,-0.75575 -0.302302,-0.377874 -0.604601,-0.6046 -0.07558,-0.302299 -0.07558,-0.377874 0,-0.151146 0,-0.151146 0,-1.133625 -0.906902,-3.400872 -0.831323,-2.493972 -0.831323,-3.703172 0,-0.45345 0.151146,-1.360347 0.226732,-0.906899 0.226732,-1.284775 0,0.226734 -0.680175,-1.738225 0.377877,-1.964946 0.604598,-3.400872 0.226733,-1.435923 0.377876,-2.493972 0.453451,-1.587072 0.831324,-2.720697 0.377875,-1.2092 0.680174,-2.040523 1.058049,-0.529024 1.435924,-0.680175 0.151144,-0.831325 0.226732,-1.435925 0.07558,-0.680173 0.151145,-1.133624 0,0 0.151145,-0.151144 0.151144,-0.151146 0.529025,-0.453449 0.453449,-0.302303 0.453449,-0.75575 0,-0.831325 -0.07558,-0.75575 0.377874,-0.377874 0.680176,-0.680173 0.377874,-0.377875 0.755749,-0.529027 4.61007,-3.098572 7.935367,-3.098572 2.493973,0 6.197144,1.96495 3.778748,1.964948 4.232197,1.964948 l 0.3023,1.435923 h 0.755747 q 1.058051,2.191672 2.191677,4.232197 1.133622,1.96495 2.191672,3.85432 -0.07558,-0.226732 -0.07558,0.226734 0,0.377874 -0.07557,1.435922 0,1.133624 0.453448,1.435923 -0.07558,0.07558 -0.377874,0.226733 v 0.529025 q 0.529025,0.529026 0.755748,0.680176 v 4.76122 q 0.680179,1.738223 0.680179,2.947423 z" />
        <path
           inkscape:connector-curvature="0"
           id="path1072"
           style="font-style:normal;font-variant:normal;font-weight:normal;font-stretch:normal;font-size:30.5056px;line-height:1;font-family:'Roman Antique';-inkscape-font-specification:'Roman Antique';text-align:center;letter-spacing:0px;word-spacing:0px;text-anchor:middle;fill:#808080;fill-opacity:1;stroke:none;stroke-width:0.264583"
           d="m 134.22731,66.990725 q 0,-3.249724 -2.04053,-3.249724 -1.05805,0.831327 -1.58707,1.5115 -0.15115,0.151144 -0.15115,0.45345 l -0.0756,0.453448 q -2.7207,2.191673 -3.17415,2.7207 v 0.07557 q 0.0756,0.377874 0.0756,0.680177 0,0.226733 0.0756,0.377873 l -1.58708,1.662647 -0.45344,0.07557 q -0.75575,0.6046 -1.2092,0.982476 -0.37787,0.302298 -0.45345,0.453448 -0.15115,0.302302 -0.22673,0.604601 -0.0756,0.226733 -0.15115,0.377874 -3.77875,3.476448 -8.76669,3.476448 -2.04052,0 -3.17415,-0.302299 l -0.6046,-0.906899 q -0.6046,-0.151146 -1.58707,-0.3023 -0.9069,-0.151146 -2.11611,-0.3023 l -0.83132,-0.75575 q -0.37787,-0.151144 -0.75575,-0.226732 -0.3023,-0.07556 -0.52902,-0.151144 -1.13363,-0.755749 -2.79627,-2.645123 -1.8138,-2.040524 -2.267252,-3.022996 -0.07557,-0.831326 -0.226734,-1.435923 -0.377874,-1.058051 -0.755748,-1.813801 -0.302299,-0.831324 -0.529024,-1.435924 -0.453449,-0.680173 -0.9069,-1.133624 l -0.151145,-0.982472 q -0.226733,-0.226734 -0.529024,-0.680176 -0.151144,-1.738222 -0.226732,-3.022997 0,-1.360348 0.07557,-2.191673 -0.377873,-0.377874 -0.755748,-0.680174 -0.302303,-0.377875 -0.529025,-0.529025 0.226735,-0.07558 0.453449,-0.151144 0.226732,-0.07558 0.529024,-0.151145 0.377874,-0.226733 0.377874,-1.36035 0,-2.796274 -0.07556,-2.569548 0.831323,-1.964947 1.058046,-2.040522 0.07558,-0.302299 0.151146,-0.906901 0.151144,-0.604599 0.3023,-1.662648 0.151145,-0.906899 1.511499,-2.720697 0.07558,-0.151144 0.07558,-0.226733 0,-0.151145 0,-0.151145 0,-1.058049 0.07557,-1.2092 0.377874,-0.07558 0.680174,-0.07558 0.3023,-0.07558 0.45345,-0.07558 0.6046,-1.058048 0.98247,-1.738221 0.37788,-0.75575 0.68017,-1.058051 0.98248,-0.982472 3.023,-1.587073 0.3023,-0.07558 1.13363,-0.453451 0.60459,-0.377875 1.13362,-0.377875 h 1.73823 q 0.98247,-0.755746 1.58707,-0.755746 5.06352,0 7.85979,1.284773 1.2092,0.680173 2.1161,1.209199 0.9069,0.529024 1.5115,0.906898 l 1.28477,2.191673 0.45345,-0.151144 q 1.28477,1.511497 2.04052,3.55202 v -0.3023 q 0.75576,1.738225 1.05806,2.191675 0.83132,1.058049 2.04051,1.058049 -0.22673,0 0.9069,-0.529025 v -3.400898 l -0.15112,-1.05805 q -0.3023,-1.058047 -0.52903,-1.813796 -0.15114,-0.755751 -0.30229,-1.284775 -0.0756,-1.2092 -0.22674,-2.418397 -0.0756,-1.284774 -0.52902,-2.4184 -0.0756,-0.302296 -1.28478,-1.133622 -0.98247,-0.755751 -1.5115,-0.755751 -0.68017,0.831325 -0.75574,1.133625 -0.45346,0.151144 -0.75576,0.151144 -0.68017,0 -1.8138,-0.453448 -1.13362,-0.529026 -1.81379,-0.529026 -3.55202,0.226733 -4.98794,-0.07558 -0.0756,-0.07558 -2.11611,-0.529024 -1.36034,-0.377874 -2.11609,-0.377874 -1.13363,0 -2.1161,0.377874 -0.9069,0.377874 -1.2092,0.377874 -1.20921,0.07557 -2.26725,0.151146 -0.98248,0.07557 -1.8138,0.151144 -8.313239,2.947422 -12.016411,7.633069 -0.982473,1.360346 -0.982473,1.360346 -0.604598,1.889375 -2.116098,4.534499 -2.116099,3.703172 -2.116099,5.894845 0,0.226732 0.226732,0.680173 -0.529025,1.511499 -0.529025,2.947423 0,3.703171 0.302299,4.685647 0.07558,0.151144 0.453452,1.284773 0.377875,0.9069 0.377875,1.360348 0,2.116098 0.07556,2.267249 0.6046,2.267248 4.987947,6.877318 0.151143,0.453449 0.302301,0.831324 0.151144,0.302301 0.226732,0.6046 1.284773,1.435922 2.493974,1.738224 0.529024,0.151145 0.604601,0.453449 0.226734,1.813798 0.831324,2.267249 0.07557,0.831322 0.680173,0.982475 1.284774,0.302299 2.267246,0.604598 1.05806,0.226732 1.66265,0.377874 l 0.37788,-0.529023 q 0.68017,0.453449 0.98247,0.755748 6.65059,0.453452 6.80174,0.529025 1.88938,0.226732 2.19168,0.226732 0.83132,0 1.5115,0 0.75575,0 1.36034,-0.07558 0.45346,0.07558 0.75576,0.07558 0.3023,0 0.45345,0 1.20919,0 4.08105,-0.680173 2.72069,-0.755749 3.55201,-0.755749 0.90691,0 2.04053,0.529024 1.20919,0.453448 1.73822,0.529024 1.20919,-0.75575 1.5115,-2.191672 0.22674,-1.209202 0.37788,-1.889375 0.15114,-0.680174 0.22673,-0.831323 0.45345,-0.302302 2.19167,-3.476449 1.58707,-2.947423 1.88937,-3.854322 0.30231,-0.680173 0.30231,-2.116096 z" />
      </g>
      <g
         style="stroke-width:0.893102;fill:#808080"
         transform="matrix(1.1196925,0,0,1.1196925,-16.298032,2.4560758)"
         id="g1199">
        <path
           inkscape:connector-curvature="0"
           id="path1074"
           style="font-style:normal;font-variant:normal;font-weight:normal;font-stretch:normal;font-size:30.5056px;line-height:1;font-family:'Roman Antique';-inkscape-font-specification:'Roman Antique';text-align:center;letter-spacing:0px;word-spacing:0px;text-anchor:middle;fill:#808080;fill-opacity:1;stroke:none;stroke-width:0.2363"
           d="m 155.08116,30.937896 q 0,-0.08663 -0.0866,-0.231027 -0.0866,-0.173268 -0.23103,-0.317661 -0.11551,-0.144391 -0.2599,-0.231026 -0.1444,-0.115504 -0.25991,-0.115504 -0.17327,0 -0.80859,0.231027 -0.63532,0.231025 -0.92411,0.231025 -0.37542,0 -0.95298,-0.202149 -0.60645,-0.231026 -0.77972,-0.231026 l -1.64605,0.05777 -0.28879,0.173268 q -0.57756,-0.08663 -1.01074,-0.144389 -0.43317,-0.05777 -0.72196,-0.08664 h -3.00334 q -1.96372,0 -2.3969,-0.462053 l -0.37541,0.05777 -0.23103,0.144391 q -0.43317,-0.231026 -2.02148,-0.202147 -0.80859,0.375417 -1.01074,0.548687 l -0.0578,0.346539 q -0.77971,0.721958 -0.98186,1.097377 -0.1155,0.31766 -0.20215,0.664199 -0.0866,0.346541 -0.20214,0.69308 -0.0289,0.05777 -0.11551,0.173269 -0.0578,0.115505 -0.17327,0.259904 -0.17327,0.259906 -0.17327,0.577566 0,1.328403 0.75084,1.328403 0.31766,0 1.24176,-1.097375 0.86635,-1.039619 1.03962,-1.472792 h 0.11551 q 0.72196,0 1.50167,-0.288784 0.77971,-0.288784 0.86635,-0.288784 0.17327,0 0.37541,0.144393 0.23103,0.144391 0.34654,0.144391 0.28879,0 0.51981,-0.202149 0.25991,-0.231026 0.46206,-0.231026 0.23102,0 0.72195,0.51981 l -0.17327,0.375417 q -0.0289,0.317661 0.0578,0.981861 0.0578,0.375419 0.0866,0.635323 0.0289,0.231027 0.0289,0.375418 -0.0578,0.577566 -0.11551,0.981863 -0.0289,0.404294 -0.0289,0.693078 0,0.08664 -0.14439,0.721958 -0.1155,0.375418 -0.1155,0.750834 0.0866,0.115505 0.14439,0.34654 -0.17327,0.433175 -0.17327,0.462054 v 2.339142 q 0,0.08664 0.0866,0.259904 0.0866,0.17327 0.0866,0.202148 0,0.115505 -0.0578,0.317663 -0.0578,0.173269 -0.0578,0.259904 0,0.144391 0.0289,0.490931 0.0578,0.31766 0.0578,0.51981 -0.43317,0.433173 -0.43317,0.721956 0,0.231026 0.14439,0.664201 0.14439,0.404296 0.14439,0.577566 0,1.53055 -2.16587,1.53055 -0.0578,0.259903 -0.2599,0.462053 -0.17327,0.173269 -0.17327,0.49093 0,0.231026 0.0578,0.462054 0.20215,0.635321 2.59905,0.635321 0.72196,0 0.95298,0 0.25991,0 0.0578,0.02888 0.51981,-0.05777 0.89522,-0.288783 0.20215,0.08664 0.34654,0.173269 0.28879,0.05777 0.77972,0.08664 h 1.81933 q 0.0866,0 0.28878,0.05777 0.20215,0.05777 0.31767,0.05777 0.17326,0 0.31766,-0.346541 -0.0866,-1.126252 -0.92411,-1.617183 -0.83747,-0.519809 -0.83747,-0.866349 0,-0.144391 0.17327,-0.317662 -0.17327,-0.08664 -0.31766,-1.039618 -0.0289,-0.259906 -0.0578,-0.51981 0,-0.259904 -0.0289,-0.548687 -0.14439,-0.462054 -0.17327,-0.693078 0.0289,-0.05775 0.17327,-0.317663 0.1155,-0.115504 0.1155,-0.462052 0,-0.288783 0,-0.721958 0.0289,-0.462052 0.0578,-1.097374 l -0.1155,-0.231027 q -0.0866,-1.270646 -0.23103,-1.357279 v -1.010741 l 0.20215,-0.375418 q 0.0866,-0.693078 -0.20215,-1.559428 0.43317,-1.155133 0.43317,-2.425777 0,-0.173269 -0.28878,-0.866347 0,-0.115505 0.34654,-0.51981 h 1.96372 q 0.20215,0 0.77972,0.259903 0.63532,0.231026 0.83747,0.231026 0.6642,0 1.27064,0.664203 0.6642,0.6642 0.98186,0.6642 0.95299,0 1.41504,-2.88783 z" />
        <path
           inkscape:connector-curvature="0"
           id="path1076"
           style="font-style:normal;font-variant:normal;font-weight:normal;font-stretch:normal;font-size:30.5056px;line-height:1;font-family:'Roman Antique';-inkscape-font-specification:'Roman Antique';text-align:center;letter-spacing:0px;word-spacing:0px;text-anchor:middle;fill:#808080;fill-opacity:1;stroke:none;stroke-width:0.2363"
           d="m 175.42659,37.637661 q -0.14438,-0.34654 -0.2599,-0.462053 0,-0.08663 0.0578,-0.17327 0.0865,-0.115504 0.0865,-0.173268 l -0.17325,-0.606447 q -0.57756,-1.877088 -2.31028,-3.580908 -0.0578,-0.05776 -0.20215,-0.231026 -0.11542,-0.173269 -0.34653,-0.462052 -0.31767,-0.433175 -0.66421,-0.664201 -0.75083,-0.288784 -1.21289,-0.433175 -0.95297,-0.6642 -1.55943,-0.895226 -0.23101,-0.115505 -0.66419,-0.115505 -0.23103,-0.02888 -0.69307,0 -0.25991,0.02887 -0.43318,0.02887 -0.17327,0 -0.23103,0 -0.11542,-0.144392 -0.17326,-0.202148 -0.0289,-0.05776 -0.0578,-0.08664 -0.37541,0.05777 -1.01074,0.17327 -0.34654,0.05777 -0.60643,0.115505 -0.25991,0.02888 -0.46207,0.02888 -0.89522,0 -1.41503,0.173269 -0.23103,0.05777 -1.29953,0.519811 -0.23101,0.05777 -0.40429,0.08664 -0.14439,0.02888 -0.28877,0.05777 -0.40431,0.288782 -0.69308,0.51981 -0.28879,0.202146 -0.49095,0.346539 -0.86635,0.866348 -1.29952,1.443913 -0.0866,0.08664 -0.34654,0.202149 -0.11548,0.05777 -0.43318,0.490931 -0.37541,0.779713 -0.40429,1.03962 -1.27064,1.963723 -1.27064,2.136993 v 2.425776 q 0,0.02888 -0.0866,0.202148 -0.0578,0.17327 -0.0578,0.231027 0,0.375417 0.46205,1.299523 -0.0578,1.386157 0,1.617185 0.0578,0.202148 0.2599,0.317661 0.1444,0.144391 0.1444,0.750835 0.86635,0.808593 1.24176,1.328402 0.2599,0.837471 0.89523,1.299523 0.31766,0.202148 0.60643,0.404297 0.28881,0.202147 0.60646,0.433173 0.40429,0.375419 0.63533,0.548688 0.23102,0.115504 0.57756,0.259906 0.37542,0.144391 0.9241,0.288782 0.98187,0.31766 1.4728,0.519809 0.51981,-0.02887 1.55943,0.144392 0.54869,0.05777 0.95297,0.08664 0.40431,0.05777 0.63533,0.05777 0.20215,0 0.28879,-0.08664 0.11542,-0.08664 0.23102,-0.202147 0.46206,0.08664 0.60644,0.08664 0.51981,0 1.4728,-0.317662 0.37542,-0.144391 0.72195,-0.259905 0.34655,-0.144391 0.69309,-0.288782 0.25991,-0.202149 0.5198,-0.404296 0.2599,-0.202147 0.51981,-0.404295 0.69308,-0.577567 0.83748,-0.981864 1.09737,-0.808592 1.0685,-1.761575 v -0.115505 q 0.34654,-0.433175 0.54868,-0.635322 0.11542,-0.6642 0.11542,-1.126254 0.11543,-0.231024 0.17327,-0.404294 0.0866,-0.115505 0.25991,-1.097377 0.17327,-0.895227 0.17327,-1.126253 0,-0.115504 -0.11543,-0.317661 -0.0866,-0.202149 -0.0866,-0.346539 0,-0.02888 0.0866,-0.433175 0.11543,-0.433175 0.31765,-1.270644 z m -3.4365,3.465395 q 0,0.144391 -0.1444,0.375419 -0.14439,0.231025 -0.14439,0.433172 0,0.115504 0.0289,0.346541 0.0289,0.231027 0.0289,0.34654 0,0.837469 -0.83747,1.761576 -0.8086,0.895226 -0.8086,1.270644 0,1.126254 -1.87707,1.646062 -0.11542,0.115504 -0.20215,0.173271 -0.0579,0.05777 -0.11543,0.115504 -0.63531,0.144393 -1.18399,0.144393 -0.20215,0 -0.60644,-0.144393 -0.4043,-0.17327 -0.57757,-0.17327 -0.9241,0 -0.77973,0.02887 -0.7797,-0.346539 -1.12624,-0.606444 -1.81933,-1.386158 -2.57016,-2.656802 -0.14439,-0.17327 -0.25992,-0.288784 -0.11542,-0.144391 -0.23101,-0.231027 -0.0289,-0.115504 -0.0289,-0.14439 0,-0.05777 0,-0.05777 0,-0.433173 -0.34654,-1.299523 -0.31766,-0.952984 -0.31766,-1.415036 0,-0.17327 0.0579,-0.519809 0.0866,-0.34654 0.0866,-0.490931 0,0.08664 -0.2599,-0.664201 0.14438,-0.750836 0.23102,-1.299523 0.0866,-0.548688 0.1444,-0.952984 0.17327,-0.606444 0.31766,-1.039618 0.14438,-0.462053 0.2599,-0.779714 0.40431,-0.202149 0.54868,-0.259906 0.0579,-0.31766 0.0866,-0.548686 0.0289,-0.259905 0.0578,-0.433175 0,0 0.0579,-0.05777 0.0578,-0.05777 0.20215,-0.173269 0.17327,-0.115504 0.17327,-0.288782 0,-0.317661 -0.0289,-0.288784 0.14439,-0.144391 0.2599,-0.259905 0.14439,-0.14439 0.28879,-0.202147 1.76157,-1.18401 3.03221,-1.18401 0.95299,0 2.36802,0.750835 1.44391,0.750836 1.61719,0.750836 l 0.11542,0.548687 h 0.28879 q 0.40431,0.837472 0.83747,1.617185 0.43317,0.750836 0.83747,1.472794 -0.0289,-0.08664 -0.0289,0.08664 0,0.144391 -0.0289,0.548687 0,0.433175 0.17327,0.548687 -0.0289,0.02888 -0.1444,0.08663 v 0.202149 q 0.20215,0.202149 0.28879,0.259905 v 1.819332 q 0.2599,0.6642 0.2599,1.126254 z" />
        <path
           inkscape:connector-curvature="0"
           id="path1078"
           style="font-style:normal;font-variant:normal;font-weight:normal;font-stretch:normal;font-size:30.5056px;line-height:1;font-family:'Roman Antique';-inkscape-font-specification:'Roman Antique';text-align:center;letter-spacing:0px;word-spacing:0px;text-anchor:middle;fill:#808080;fill-opacity:1;stroke:none;stroke-width:0.2363"
           d="m 191.50119,42.691361 -0.28877,-0.462051 0.0579,-1.212889 q -0.23101,-0.808592 -0.69307,-1.761576 l -0.0866,0.144391 q -0.37541,-0.808591 -0.92411,-1.530549 l -0.23102,0.08664 -0.14439,-0.231027 -0.28878,0.202147 -0.0865,-0.31766 0.0289,-0.577566 0.34654,-0.02888 0.14439,-0.404296 0.51981,-0.288783 0.51981,-0.721957 -0.0289,-1.01074 q 0.14439,-0.404297 0.20216,-0.606445 0.0866,-0.231026 0.0866,-0.231026 V 33.33479 q -0.0579,-0.115505 -0.34654,-0.981863 -0.23102,-0.606442 -0.43317,-0.952982 l -0.34656,-0.115504 -0.0289,-0.31766 -0.63531,-0.462054 q -0.77972,-0.08663 -1.76157,-0.693079 l -0.63533,0.144392 q -0.28878,-0.05777 -0.43318,-0.08664 -0.1444,-0.05777 -0.1444,-0.05777 -0.31764,0 -0.86633,0.05777 -0.51981,0.02888 -1.27066,0.08664 -0.6642,0.05777 -1.21288,0.08663 -0.51981,0 -0.92411,-0.02888 l -0.34654,0.288784 -0.40429,-0.17327 h -1.29951 l -0.23103,-0.173271 q -0.43319,-0.05777 -0.66421,-0.08664 -0.20215,-0.05777 -0.20215,-0.05777 -1.38616,0 -1.76157,0.375419 0.0289,0.317661 0.0289,0.664201 -0.0289,0.317661 -0.0578,0.693078 0.20215,0.462053 0.80858,0.837472 l 0.46206,0.08663 0.0579,-0.231025 0.23102,0.144391 0.37543,0.02888 0.37541,-0.433174 0.25991,-0.08663 0.37541,0.346539 q -0.23102,0.259905 -0.5198,0.317661 0.14439,0.721959 -0.11542,1.184011 0.0579,0.577565 0.0866,0.866349 0.0289,0.288782 0.0289,0.288782 0,1.761576 -0.43318,2.916709 0.0289,0.433173 0.23102,1.01074 l -0.28877,0.577566 q 0.0579,0.404295 0.11542,0.721958 0.0579,0.288782 0.11543,0.49093 v 1.530549 l 0.20215,0.288783 q -0.43319,0.750836 -0.51982,1.212889 l 0.46205,0.577567 v 0.375416 l 0.25991,0.231027 -0.0579,1.126252 -0.20215,0.231028 -1.15513,0.144391 q -0.31767,0.231028 -1.0685,0.866349 l -0.0866,0.577566 0.28878,0.721957 0.57757,0.462052 h 0.57756 l 0.49094,-0.202147 h 1.53055 l 0.11542,-0.17327 0.20215,0.17327 q 0.6642,0.05777 1.24178,-0.317661 0.37542,0.02887 0.86635,0.02887 0.49092,-0.02887 1.06848,-0.08664 0.66421,-0.05776 1.12626,-0.08664 0.49093,-0.05776 0.77973,-0.05776 v -0.115505 l 0.51979,0.05777 0.20216,0.115504 1.15512,-0.05776 0.49094,-0.259905 0.0289,0.317661 0.54869,-0.115505 0.37542,-0.462053 0.28877,-0.144391 0.0579,-0.231028 0.46205,-0.202147 1.06849,-1.01074 -0.0865,-0.577566 q 0.11542,-0.519809 0.63531,-0.924105 0.20215,-0.750836 0.23104,-1.934847 z m -3.78304,-8.547975 -0.0579,1.35728 -0.46205,0.51981 -0.0866,0.635322 q -0.72184,0.895228 -1.15503,1.068497 l -0.0577,-0.144391 -0.8086,0.519809 h -1.79045 q -0.31767,-0.115504 -0.51981,-0.17327 l -0.43317,-0.519809 -0.14439,-0.462052 0.0865,-0.721959 0.20215,-0.14439 0.0866,-0.433175 -0.31766,-0.577564 0.23102,-0.231028 -0.20214,-0.288782 V 33.91236 l 0.11543,-0.144391 0.0289,-1.530549 0.40429,-0.346539 0.11542,-0.34654 0.98186,0.115504 0.43317,-0.144393 v -0.17327 l 0.51981,-0.02887 q 0.98187,0.375416 1.44392,0.635322 h 0.34654 q 0.63532,1.068498 0.80859,1.617184 l 0.0579,0.490932 z m 1.12624,8.432462 -0.0866,1.097376 -0.28879,0.375418 -0.0579,0.404294 -0.28878,0.144393 0.0577,0.375417 -0.25991,0.288784 q -0.54868,0.115518 -0.83747,0.462053 h -0.17327 l -0.23103,0.404297 q -0.7797,0.173269 -1.15513,0.548686 -0.23103,0.02888 -0.34654,0.02888 -0.0866,0 -0.0866,0 0,0 -0.11542,0 -0.11543,0 -0.34654,-0.02888 L 183.87727,46.099 v -0.31766 l -0.28878,0.05777 q -0.17327,-0.144391 -0.34653,-0.317661 -0.17327,-0.202149 -0.31767,-0.433175 l -0.0579,-0.462053 -0.28878,-0.02888 -0.14439,-0.548687 0.28879,-0.606442 q -0.0579,-0.866351 -0.1444,-1.443916 -0.0866,-0.606444 -0.14439,-0.924106 l -0.17327,-0.231025 0.0289,-0.490931 0.25991,-0.288784 0.0289,-0.231026 0.7797,-0.05777 0.1444,-0.144391 0.28876,0.144391 q 0.1444,-0.02888 0.49094,-0.317661 l 1.29953,0.02888 0.43316,0.288783 h 0.8086 l 0.0578,0.404295 q 0.57757,0.375419 0.89524,0.779715 l 0.25989,0.05777 q 0.14439,0.231027 0.57757,0.577566 l -0.11542,0.69308 z" />
        <path
           inkscape:connector-curvature="0"
           id="path1080"
           style="font-style:normal;font-variant:normal;font-weight:normal;font-stretch:normal;font-size:30.5056px;line-height:1;font-family:'Roman Antique';-inkscape-font-specification:'Roman Antique';text-align:center;letter-spacing:0px;word-spacing:0px;text-anchor:middle;fill:#808080;fill-opacity:1;stroke:none;stroke-width:0.2363"
           d="m 208.84396,44.799478 v -0.51981 q -0.43316,-0.115504 -0.5198,-0.115504 -0.5198,0.288781 -0.80859,0.519808 -0.11542,0.05777 -0.23103,0.115504 -0.0866,0.05777 -0.14438,0.08664 -0.69309,0.606445 -1.03963,1.01074 -0.6642,0.462053 -1.15513,0.750836 -0.46205,0.259905 -0.72196,0.317661 -0.40429,0.08664 -2.19476,0.08664 -0.2599,0.115505 -0.63531,0.115505 -2.42578,0 -2.85894,-1.039619 -0.0578,-0.317662 -0.11542,-0.548689 -0.0578,-0.231026 -0.0865,-0.404296 l 0.28877,-0.231026 q 0.0289,-0.31766 -0.0579,-0.693078 -0.0866,-0.404297 -0.23103,-0.895228 l 0.20216,-0.288782 q 0,-0.17327 -0.0578,-0.548688 -0.0289,-0.404296 -0.0289,-0.606444 0,0 0,-0.115505 0.0289,-0.144391 0.0866,-0.433173 l -0.14439,-0.231027 v -0.924106 h 1.24176 q 0.51981,0.433175 1.8771,0.51981 1.38615,0.08664 1.50166,0.202148 0.20214,0.375418 0.25991,0.635322 0.31767,0.51981 0.54869,0.548689 0.23102,0.02887 0.43318,0.02887 0.20212,0 0.40429,0.02888 0.34654,-0.17327 0.46204,-0.288782 v -1.588308 q 0,-0.115504 0.1444,-0.317661 0.14439,-0.231026 0.14439,-0.404295 0,-0.144392 -0.14439,-0.404297 -0.1444,-0.259905 -0.1444,-0.375418 0,-1.039618 0,-1.299523 0.0289,-0.259904 0.0579,0.259905 -0.0579,-0.721957 -0.34654,-0.952984 -0.11542,-0.05776 -0.20215,-0.08664 -0.0866,-0.02888 -0.1444,-0.05776 -0.31765,-0.231027 -0.37541,-0.231027 -0.17327,0 -0.37542,0.375418 -0.0579,0.144392 -0.14438,0.288784 -0.0866,0.115504 -0.1444,0.259903 -0.34654,1.732699 -0.77971,1.732699 0,0 -0.23103,-0.08664 -0.23102,-0.115505 -0.34654,-0.115505 -0.17328,0 -0.43317,0.17327 -0.23104,0.144392 -0.37542,0.144392 h -2.3969 q -0.11542,-0.115505 -0.20214,-0.17327 -0.0866,-0.08664 -0.17328,-0.144392 0,-0.317661 0,-0.779713 0.0289,-0.490933 0.0578,-1.126254 0.0866,-1.241767 0.0866,-1.905968 0,-0.14439 -0.0579,-0.375417 -0.0289,-0.259905 -0.0866,-0.519809 -0.0289,-0.288784 -0.0866,-0.51981 -0.0289,-0.259905 -0.0289,-0.433174 0,-0.05776 0.49094,-1.126253 h 0.89522 l 0.28879,0.231025 q 0.51981,-0.231025 1.21287,-0.231025 0.0578,0.02888 0.17327,0.115504 0.11543,0.05777 0.17327,0.05777 1.32841,0 1.67495,0 0.37541,-0.02888 -0.23102,-0.05777 0.98185,0.05777 1.29952,0.433175 0.11543,0.144391 0.46205,1.299524 0.25992,0.952983 0.89522,1.386157 0.2888,0.231026 0.46205,0.375418 0.66421,-0.346539 1.01075,-0.577566 v -2.136994 q 0.51981,-0.433175 0.51981,-1.386157 0,-0.05777 -0.40429,-1.761578 -0.0866,-0.144391 -0.37542,-0.144391 -0.34654,0 -0.72196,0.462053 -0.4043,0.433175 -0.8086,0.433175 -0.14439,0 -0.46205,-0.02888 -0.28878,-0.05777 -0.43317,-0.05777 -0.23102,0 -0.60645,0.05777 -0.3754,0.02888 -0.86635,0.08664 -0.49092,0.05776 -0.86635,0.115504 -0.34654,0.02888 -0.60643,0.02888 -0.23103,0 -0.51982,-0.02888 -0.25992,-0.02888 -0.54868,-0.08664 -0.0579,0.02888 -0.2599,0.05777 -0.17327,0.02888 -0.46206,0.08663 -0.43318,0.115504 -0.69308,0.115504 -0.17327,0 -0.28879,-0.08664 -0.0579,-0.02888 -0.0866,-0.02888 -0.0289,0 -0.0579,-0.02888 -0.83747,0 -1.41503,0 -0.54869,-0.02888 -0.86635,-0.05777 -0.66421,-0.08663 -2.07924,-0.490933 -0.0579,0.02888 -0.23104,0.144393 -0.14438,0.115504 -0.37541,0.317659 -0.43316,0.404297 -0.43316,0.548689 0,0.462053 0.80857,0.750835 0.6931,0.259905 1.24178,0.259905 0,0.115504 0.0578,0.317661 0.0865,0.202149 0.0865,0.259905 v 1.010741 q 0,0 -0.0578,0.173269 -0.0289,0.17327 -0.0865,0.51981 l 0.14438,0.173268 q 0,0.721959 -0.23102,1.501671 l 0.28879,0.144393 q -0.0289,0.144392 -0.0866,0.375419 -0.0289,0.231026 -0.11542,0.577566 -0.17327,0.577565 -0.17327,0.952983 0,0.433174 0.17327,0.808593 v 1.703818 q -0.0579,0.05777 -0.1444,0.115504 -0.0577,0.05777 -0.11542,0.115505 -0.0289,0.115504 -0.0579,0.202148 0,0.08664 0,0.202149 0,0.17327 0.0289,0.433174 0.0579,0.259905 0.11543,0.548688 0.0578,0.259904 0.0865,0.548688 0.0578,0.259903 0.0578,0.433173 0,1.18401 -0.11542,1.501673 -0.14439,0.231026 -0.23102,0.317659 l -0.0289,0.17327 q 0,0.05777 0,0.17327 0,0.08664 0.0289,0.231027 0.0289,0.144392 0.0289,0.259905 0.0289,0.08663 0.0289,0.144392 0,0.231026 -0.11543,0.577566 -0.57757,0 -1.12627,0.259904 -0.66419,0.346538 -0.66419,0.86635 0,0.288782 0.17327,0.721954 l 3.43651,0.17327 q 0.28879,0 0.86637,-0.115504 0.57756,-0.115504 0.9241,-0.115504 0.34653,0 0.72196,0.115504 0.3754,0.115504 0.40428,0.115504 -0.0866,0 0.14439,0 0.23103,0 0.8086,-0.02888 0.37542,-0.02887 0.69307,0 0.31766,0 0.5487,0.02888 0.75083,0.05777 1.03962,0.231028 h 2.39689 q 0.17327,-0.17327 0.25991,-0.231028 0.0866,-0.02888 0.20214,-0.02888 0.80858,0.259904 1.18401,0.259904 0.98186,0 0.98186,-0.721958 0,-0.115505 -0.0866,-0.317661 -0.0866,-0.231025 -0.0866,-0.346539 0,-0.635322 0.89522,-1.877088 0.0866,-0.721959 0.25991,-0.952984 z" />
        <path
           inkscape:connector-curvature="0"
           id="path1082"
           style="font-style:normal;font-variant:normal;font-weight:normal;font-stretch:normal;font-size:30.5056px;line-height:1;font-family:'Roman Antique';-inkscape-font-specification:'Roman Antique';text-align:center;letter-spacing:0px;word-spacing:0px;text-anchor:middle;fill:#808080;fill-opacity:1;stroke:none;stroke-width:0.2363"
           d="M 227.74481,48.178238 V 47.28301 q -0.23102,-0.288783 -0.80858,-0.49093 l -0.20214,0.05777 -1.0685,-0.17327 q -0.31767,-0.288782 -0.57756,-0.490929 -0.25992,-0.231028 -0.40431,-0.375419 -0.31766,-0.404296 -0.54869,-0.721957 -0.20214,-0.31766 -0.31767,-0.519809 -0.0579,-0.05777 -0.31766,-0.404296 -0.23101,-0.34654 -0.69307,-0.924105 -0.66419,-0.808594 -0.86636,-1.472793 l 0.0579,-0.548689 q -0.17326,-0.317661 -0.46206,-0.519809 l -0.34654,0.02887 -0.11542,-0.288784 -0.25991,-0.231026 -0.11542,-0.346539 q -0.66421,-0.721957 -0.72197,-0.808592 l 0.72197,-0.721959 h 0.63531 l 0.63532,-0.462052 0.77971,-0.231026 0.54869,-0.6642 0.0289,-0.606445 0.51982,-0.779714 q -0.0579,-0.317661 0.0866,-0.808591 0.0578,-0.317662 0.0866,-0.490932 0.0579,-0.202149 0.0865,-0.317663 -0.2599,-0.693078 -0.17328,-1.241766 -0.11543,-0.202147 -0.23103,-0.433173 -0.0866,-0.231027 -0.14438,-0.490931 l -1.15514,-1.010742 -0.31764,-0.02888 -0.23104,-0.202148 q -1.21289,-0.02888 -2.3969,-0.635322 -0.31765,0.05777 -1.96372,0.08664 -1.41504,0.02888 -1.67496,0.17327 -0.46204,-0.231026 -3.89856,-0.231026 l -0.20214,0.144391 -0.72196,-0.288783 h -0.77972 l -0.4043,0.317662 -0.17326,0.288782 -0.0579,0.635322 0.14439,0.404298 0.49094,0.288782 0.28876,-0.05776 0.2888,-0.34654 q 0.28878,-0.02887 0.4043,-0.02887 0.14438,-0.02888 0.14438,-0.02888 h 0.31766 l 0.60646,0.664202 0.0866,2.483534 -0.2599,0.519809 0.20214,0.433175 -0.11543,0.866348 0.17327,0.31766 -0.43317,0.808594 0.14439,0.259903 v 1.732699 l -0.14439,0.259903 q 0.20215,2.136995 0.2599,3.205491 -0.43318,0.664203 -0.37542,1.415037 l 0.25991,0.288783 -0.37543,0.202148 0.11543,0.288783 q -0.11543,1.010741 -0.25991,1.588307 -0.31766,0.31766 -0.54868,0.548686 -0.20215,0.202149 -0.34655,0.259905 l -0.23101,-0.173269 -0.49094,0.02887 -0.46206,0.375417 0.0866,0.346539 q 0.37541,0.519811 1.12624,0.779715 l 0.51982,-0.375418 q 0.6642,-0.02888 0.98186,-0.02888 0.34655,0 0.34655,0 0,0 0.14437,0.02888 0.17329,0.02888 0.49093,0.08664 l 0.17328,-0.08664 q 0.75084,0.115505 1.3284,0.17327 0.57757,0.02887 0.98187,0.02887 0.0578,0.02888 0.31765,0.115504 0.28879,0.05777 0.34654,0.05777 h 0.57758 l 0.40429,-0.115505 0.11542,-0.317662 -0.23102,-0.664199 -0.28877,-0.288783 -0.31767,-0.02888 -0.17327,0.17327 -1.01074,-0.144393 q -0.37542,-0.202147 -0.69309,-0.750836 l -0.11543,-1.877088 0.14439,-0.231026 q 0,-0.375419 -0.0579,-0.866349 -0.0289,-0.490933 -0.0866,-1.126255 l 0.14437,-0.202147 q 0.0289,-0.433174 0.0289,-0.635323 0,-0.231026 0,-0.231026 0,0 0,-0.462052 0,-0.490933 -0.0289,-1.443915 l 0.37542,-0.433175 h 0.46206 l 0.51981,0.375418 h 0.31766 l 1.01074,0.404296 0.77971,0.779715 -0.0289,0.548687 0.60644,0.750835 v 0.404296 q 0.57757,0.635322 0.92411,1.732698 v 0.51981 l 0.72196,1.15513 0.31766,0.05777 0.46204,0.981861 0.75084,0.490931 v 0.317662 l 0.11543,0.17327 0.28877,-0.144391 0.28879,0.144391 h 0.86635 l 0.25991,0.202148 q 0.3754,0.144392 0.80858,0.259905 0.43319,0.08664 0.92411,0.144391 0.20214,0.02887 0.63532,0.08664 0.46206,0.02887 1.15512,0.08664 z m -6.84415,-12.244397 -0.0289,0.693078 -1.01074,1.03962 h -0.34654 l -0.31767,0.375416 -0.8086,0.08664 -0.34654,0.202148 -1.12624,-0.173269 -0.43317,0.115504 -0.63533,-0.144391 -0.86635,0.144391 -0.20214,-0.144391 0.0579,-0.952983 0.2599,-0.375419 -0.31767,-0.259904 V 36.22262 l 0.17329,-0.288784 -0.11543,-0.202147 V 35.12524 l 0.17327,-0.288782 q 0.0866,-0.635322 0.11543,-0.924106 0.0578,-0.317663 0.0578,-0.317663 v -0.57756 l -0.20215,-0.346539 q 0.57756,-1.241767 0.77971,-1.443915 0.57757,-0.02888 1.03961,-0.02888 0.46207,-0.02887 0.8375,-0.08663 l 0.0865,0.173269 q 1.03962,0.02888 1.96373,1.241766 h 0.23103 l 0.23102,0.317662 -0.0289,0.144392 0.34654,0.288783 q 0.37542,0.664201 0.37542,1.155132 0,0 -0.0289,0.317661 0,0.317661 -0.0579,0.952984 z" />
      </g>
      <g
         style="stroke-width:0.959759;fill:#808080"
         transform="matrix(1.0419287,0,0,1.0419287,95.82332,7.6428059)"
         id="g1121">
        <path
           inkscape:connector-curvature="0"
           id="path1084"
           style="font-style:normal;font-variant:normal;font-weight:normal;font-stretch:normal;font-size:30.5056px;line-height:1;font-family:'Roman Antique';-inkscape-font-specification:'Roman Antique';text-align:center;letter-spacing:0px;word-spacing:0px;text-anchor:middle;fill:#808080;fill-opacity:1;stroke:none;stroke-width:0.253936"
           d="M 76.228864,77.505536 Q 75.984819,77.169975 75.832291,77.047952 75.069652,76.834413 74.154484,76.864919 H 73.42235 q -0.366067,0.27455 -1.03719,0.27455 -0.518595,0 -1.128707,0.152528 -0.579606,0.152528 -0.732134,0.152528 -0.244045,0 -0.854157,-0.396573 -0.335561,0.09152 -0.457584,0.183034 -0.213539,-0.305056 -1.067695,-0.793145 -0.854157,-0.48809 -1.128707,-0.48809 -0.183034,0 -0.549101,0.122022 -0.488089,-0.244044 -0.976179,-0.518595 -0.488089,-0.244044 -0.701628,-0.793145 -0.579606,0 -1.03719,0.09152 -0.274551,-0.457584 -0.549101,-0.823651 -0.76264,-0.335562 -1.189718,-0.579606 -0.427078,-0.213539 -0.579606,-0.274551 -0.122023,0.06101 -0.183034,0.06101 -0.244044,0 -0.640617,-0.305056 -0.76264,-0.579607 -1.098201,-0.701629 -0.305056,-0.122022 -0.579607,-0.244045 -0.27455,-0.122022 -0.579606,-0.244044 -0.305056,-0.09152 -0.488089,-0.457584 -0.183034,-0.06101 -0.213539,-0.06101 -0.701629,0 -1.006685,-0.183034 h -0.0305 q -0.09152,0 -0.244045,0.03051 -0.122023,0.03051 -0.183034,0.03051 -0.213539,0 -0.335561,-0.27455 -0.335562,-0.122022 -0.366067,-0.366067 l 0.09152,-0.183034 q 0.335562,-0.06101 0.549101,-0.09152 0.244045,-0.03051 0.396573,-0.06101 0.671123,-0.09152 1.159212,-0.488089 0.640618,-0.457584 1.189718,-0.823651 0.549101,-0.396573 1.03719,-0.732134 0.244045,-0.549101 0.244045,-0.915168 v -0.122022 q 0.366067,-0.457584 0.579606,-0.671123 0.122023,-0.701629 0.122023,-1.189718 0.122022,-0.244045 0.183033,-0.427079 0.09152,-0.122022 0.27455,-1.128706 0.183034,-1.006685 0.183034,-1.220224 0,-0.122022 -0.122022,-0.335562 -0.09152,-0.213539 -0.09152,-0.335561 0,0.03051 0.427078,-1.830335 -0.152528,-0.366068 -0.27455,-0.48809 0,-0.09152 0.06101,-0.183033 0.09152,-0.09152 0.09152,-0.183034 0,-0.03051 -0.183034,-0.640617 -0.579606,-1.921853 -2.440447,-3.782694 -0.06101,-0.06101 -0.213539,-0.244044 -0.122023,-0.183034 -0.366067,-0.48809 -0.152528,-0.244045 -0.335562,-0.396572 -0.183033,-0.183034 -0.366067,-0.305056 -0.793145,-0.305056 -1.281235,-0.457584 -1.006684,-0.701629 -1.647302,-0.945674 -0.213539,-0.06101 -0.701628,-0.122022 -0.244045,-0.03051 -0.732134,0 -0.274551,0.03051 -0.457584,0.03051 -0.183034,0 -0.244045,0 -0.122022,-0.152528 -0.183033,-0.213539 -0.03051,-0.06101 -0.06101,-0.09152 -0.579606,0.03051 -1.03719,0.122022 -0.457584,0.06101 -0.854156,0.183034 -0.854157,0.09152 -1.189718,0.06101 -0.701629,0.213539 -1.220224,0.396573 -0.488089,0.152528 -0.76264,0.305055 -0.244044,0.06101 -0.427078,0.09152 -0.152528,0.03051 -0.305056,0.06101 -0.427078,0.305056 -0.732134,0.549101 -0.305056,0.213539 -0.518595,0.366067 -0.915168,0.915168 -1.372752,1.52528 -0.122022,0.06101 -0.213539,0.09152 -0.09152,0.03051 -0.152528,0.06101 -0.213539,0.244044 -0.366067,0.457583 -0.152528,0.21354 -0.244044,0.366068 -0.244045,0.610111 -0.274551,0.854156 -0.579606,0.945673 -0.884662,1.464268 -0.305056,0.48809 -0.335561,0.549101 -0.122023,0.366067 -0.122023,2.806514 0,0.03051 -0.09152,0.213539 -0.06101,0.183034 -0.06101,0.244045 0,0.396573 0.48809,1.372752 -0.03051,1.494774 0,1.708313 0.06101,0.213539 0.27455,0.335561 0.152528,0.152528 0.152528,0.793146 0.915168,0.854156 1.31174,1.403257 0.274551,0.884662 0.945674,1.372751 0.335561,0.244045 0.640617,0.457584 0.305056,0.213539 0.640618,0.427079 0.793145,0.640617 1.403257,0.915167 0.793145,0.305056 1.403257,0.48809 0.610112,0.183033 1.006684,0.305056 0.823651,-0.03051 1.708313,0.335561 0.152528,0.09152 0.76264,0.244045 0.48809,0.152528 0.793146,0.366067 0.396572,0.305056 0.671123,0.366067 0.945673,0.335561 1.250729,0.610112 0.122022,0.122022 0.183033,0.152528 0.09152,0.06101 0.122023,0.09152 0.488089,0.122022 0.793145,0.183033 0.945673,0.27455 1.860841,1.006685 l 0.396573,0.06101 q 0.335561,0.27455 0.640617,0.488089 0.305056,0.244045 0.549101,0.457584 1.067695,0.488089 2.043874,1.006685 0.976179,0.5491 1.860841,1.159212 0.152528,-0.03051 0.701629,0.305056 h 0.183033 l 0.09152,-0.03051 q 0.152528,0.122023 0.244045,0.213539 0.122022,0.09152 0.183033,0.152528 0.579607,0.335562 2.104886,0.549101 1.250729,0.213539 2.226908,0.213539 0.518595,0 1.403257,-0.213539 0.21354,-0.213539 0.396573,-0.27455 0.03051,0.0305 0.27455,0.0305 1.311741,0 3.172582,-0.335561 0.09152,0 0.244045,-0.122023 0.183033,-0.09152 0.396572,-0.213539 0.213539,-0.09152 0.427078,-0.213539 0.21354,-0.09152 0.396573,-0.09152 0.244045,-0.244044 0.396573,-0.427078 0.152528,-0.183033 0.27455,-0.305056 z M 58.078038,63.564481 q 0,0.152528 -0.152528,0.396573 -0.152528,0.244045 -0.152528,0.457584 0,0.122022 0.03051,0.366067 0.0305,0.244045 0.0305,0.366067 0,0.884662 -0.884662,1.860841 -0.854157,0.945673 -0.854157,1.342246 0,1.189718 -1.982863,1.738819 -0.122022,0.122022 -0.213539,0.183033 -0.06101,0.06101 -0.122022,0.122023 -0.671123,0.152528 -1.25073,0.152528 -0.213539,0 -0.640617,-0.152528 Q 51.458324,70.2147 51.27529,70.2147 q -0.976179,0 -0.823651,0.03051 -0.82365,-0.366071 -1.189717,-0.640622 Q 47.34007,68.14032 46.546925,66.798074 46.394397,66.61504 46.272374,66.493018 46.150352,66.34049 46.02833,66.248973 q -0.03051,-0.122022 -0.03051,-0.152528 0,-0.06101 0,-0.06101 0,-0.457584 -0.366067,-1.372751 -0.335562,-1.006685 -0.335562,-1.494774 0,-0.183034 0.06101,-0.549101 0.09152,-0.366067 0.09152,-0.518595 0,0.09152 -0.27455,-0.701629 0.152528,-0.793145 0.244045,-1.372751 0.09152,-0.579606 0.152528,-1.006685 0.183033,-0.640617 0.335561,-1.098201 0.152528,-0.488089 0.274551,-0.823651 0.427078,-0.213539 0.579606,-0.27455 0.06101,-0.335562 0.09152,-0.579606 0.0305,-0.274551 0.06101,-0.457584 0,0 0.06101,-0.06101 0.06101,-0.06101 0.213539,-0.183034 0.183034,-0.122022 0.183034,-0.305056 0,-0.335561 -0.03051,-0.305056 0.152528,-0.152528 0.27455,-0.27455 0.152528,-0.152528 0.305056,-0.213539 1.860841,-1.250729 3.203087,-1.250729 1.006685,0 2.501459,0.793145 1.525279,0.793145 1.708313,0.793145 l 0.122022,0.579607 h 0.305056 q 0.427078,0.884662 0.884662,1.708313 0.457584,0.793145 0.884662,1.555785 -0.0305,-0.09152 -0.0305,0.09152 0,0.152528 -0.03051,0.579607 0,0.457584 0.183034,0.579606 -0.03051,0.03051 -0.152528,0.09152 v 0.213539 q 0.213539,0.213539 0.305056,0.27455 v 1.921852 q 0.27455,0.701629 0.27455,1.189718 z" />
        <path
           inkscape:connector-curvature="0"
           id="path1086"
           style="font-style:normal;font-variant:normal;font-weight:normal;font-stretch:normal;font-size:30.5056px;line-height:1;font-family:'Roman Antique';-inkscape-font-specification:'Roman Antique';text-align:center;letter-spacing:0px;word-spacing:0px;text-anchor:middle;fill:#808080;fill-opacity:1;stroke:none;stroke-width:0.253936"
           d="m 84.040918,52.490952 -0.366067,-0.305056 q -0.305056,-0.06101 -0.457584,-0.06101 -0.152528,-0.03051 -0.152528,-0.03051 0,0 -0.244045,0.06101 -0.213539,0.0305 -0.671123,0.152528 l -0.244045,-0.21354 -0.183033,0.21354 q -0.183034,-0.06101 -0.366067,-0.06101 -0.213539,0 -0.640618,0.122023 -0.427078,0.09152 -0.640617,0.09152 -0.701629,0 -1.31174,-0.152527 l -0.09152,0.183033 -0.884662,-0.396573 -0.366067,0.06101 -0.183034,-0.152528 q -1.189718,0.03051 -1.677807,0.518595 v 0.671123 l 0.396572,0.427078 q 1.738819,0.244045 2.379436,0.488089 l 0.183034,0.396573 0.427078,0.122022 v 0.701629 q 0,0.152528 -0.09152,0.488089 -0.09152,0.335562 -0.09152,0.48809 0,0.152528 0,0.427078 0.0305,0.244045 0.06101,0.518595 0.03051,0.27455 0.03051,0.549101 0.03051,0.244045 0.03051,0.427078 0,1.921852 -0.09152,2.653986 0,0.152528 -0.09152,0.48809 -0.09152,0.335561 -0.09152,0.488089 0,0 0.03051,0.335562 0.06101,0.335561 0.122023,1.03719 l 0.244044,0.427078 q -0.122022,0.610112 -0.213539,1.311741 -0.09152,0.701628 -0.213539,1.494773 -0.488089,0.854157 -1.281235,1.860841 -0.06101,0.06101 -0.427078,0.48809 -0.335561,0.427078 -1.03719,1.189718 l -0.854157,-0.09152 -0.5491,0.27455 -0.701629,-0.396572 q -0.671123,0.396572 -1.79983,0.305056 -0.457583,-0.244045 -0.976178,-0.48809 -0.48809,-0.244044 -1.006685,-0.488089 -0.366067,-0.579606 -0.793145,-1.464269 -0.427079,-0.884662 -0.945674,-2.043874 0,-0.732134 -0.06101,-1.708313 -0.0305,-1.006685 -0.152528,-2.287919 -0.183033,-2.196403 -0.183033,-2.013369 0,-0.152528 0.09152,-0.48809 0.122023,-0.335561 0.122023,-0.488089 0,-0.976179 0.09152,-2.501459 0.06101,-1.067695 0.09152,-1.677807 0.06101,-0.640618 0.06101,-0.823651 l 0.27455,-0.335562 q 0.488089,-0.03051 1.006684,-0.457583 l 0.03051,-0.21354 0.152528,0.03051 0.335561,-0.335561 -0.0305,-0.335562 -0.183034,-0.305056 q -0.152528,-0.03051 -0.244044,-0.03051 -0.06101,-0.03051 -0.06101,-0.03051 -0.305056,0 -0.823651,0.152528 -0.305055,0.09152 -0.518595,0.152528 -0.183033,0.0305 -0.27455,0.06101 -0.488089,0.06101 -0.854156,0.09152 -0.366068,0 -0.610112,0.03051 l -0.122023,-0.122022 -0.152528,0.122022 q -1.128706,0.03051 -1.708313,0.06101 -0.5491,0 -0.5491,0 -0.213539,0 -0.671123,-0.03051 -0.427079,-0.06101 -0.610112,-0.06101 -0.793145,0 -1.128707,0.305056 l -0.09152,0.701628 0.305056,0.396573 q 0.610112,0.122022 0.884662,0.122022 0,0 0.122023,0 0.122022,-0.03051 0.366067,-0.09152 0.610112,0.183033 1.220223,0.5491 0.03051,0.152528 -0.06101,0.48809 -0.09152,0.427078 -0.09152,0.518595 0,1.128706 -0.122022,1.342246 0.06101,0.488089 0.09152,0.732134 0.06101,0.213539 0.06101,0.213539 0,0 -0.06101,0.366067 -0.03051,0.366067 -0.152528,1.098201 l -0.427078,0.48809 0.366067,0.427078 0.0305,1.067696 0.366067,0.640617 -0.366067,0.671123 q -0.122022,1.159212 0.244045,2.257414 -0.213539,0.5491 -0.213539,1.464268 l 0.305056,1.403257 0.488089,0.48809 q 0.274551,0.762639 0.976179,1.79983 l 0.09152,0.640617 q 0.884662,0.488089 1.616796,1.006684 0.732134,0.48809 1.250729,1.067696 0.640618,0.06101 0.945674,0.09152 0.335561,0.03051 0.335561,0.03051 0.06101,0 0.213539,0 0.152528,0 0.396573,-0.03051 0.213539,-0.03051 0.335562,-0.03051 0.152527,0 0.27455,0 0.76264,0.244045 1.189718,0.366067 0.122022,0.03051 1.220223,0.03051 1.098202,0 3.203087,-0.549101 l 0.21354,-0.610112 q 0.396572,0.06101 0.579606,0.09152 0.213539,0.03051 0.213539,0.03051 0,0 0.183034,0 0.213539,0 0.610111,-0.03051 l 0.610112,-0.701628 -0.09152,-0.518595 q 0.671123,-0.244045 1.098202,-0.793146 v -0.732134 q 0.427078,-0.610112 0.610111,-1.921852 0.03051,-0.152528 0.06101,-0.671123 0.0305,-0.518595 0.09152,-1.403257 0.03051,-0.06101 0.03051,-0.183034 0,-0.152528 0.03051,-0.366067 0.03051,-0.183033 0.03051,-0.305056 0.03051,-0.152528 0.03051,-0.244044 0,-0.549101 -0.06101,-1.128707 -0.06101,-0.579607 -0.183034,-1.189718 l 0.305056,-0.21354 q -0.122022,-1.342245 0.06101,-2.653986 L 81.02089,58.195492 q 0.03051,-0.518595 0.03051,-1.03719 0,-0.5491 0,-1.067695 0.06101,-1.403257 0.396573,-1.982864 0.213539,-0.06101 0.305056,-0.06101 0.122022,-0.0305 0.122022,-0.0305 1.098201,0 1.555785,-0.21354 0.640617,-0.518595 0.610112,-1.31174 z" />
        <path
           inkscape:connector-curvature="0"
           id="path1088"
           style="font-style:normal;font-variant:normal;font-weight:normal;font-stretch:normal;font-size:30.5056px;line-height:1;font-family:'Roman Antique';-inkscape-font-specification:'Roman Antique';text-align:center;letter-spacing:0px;word-spacing:0px;text-anchor:middle;fill:#808080;fill-opacity:1;stroke:none;stroke-width:0.253936"
           d="m 102.16243,67.469197 v -0.549101 q -0.45758,-0.122022 -0.5491,-0.122022 -0.5491,0.305056 -0.85416,0.549101 -0.12202,0.06101 -0.24404,0.122022 -0.0915,0.06101 -0.15253,0.09152 -0.732133,0.640617 -1.0982,1.067695 -0.701629,0.48809 -1.220224,0.793146 -0.488089,0.27455 -0.76264,0.335561 -0.427078,0.09152 -2.318424,0.09152 -0.274551,0.122022 -0.671123,0.122022 -2.56247,0 -3.020054,-1.098201 -0.06101,-0.335561 -0.122022,-0.579606 -0.06101,-0.244045 -0.09152,-0.427078 l 0.305056,-0.244045 q 0.03051,-0.335562 -0.06101,-0.732134 -0.09152,-0.427079 -0.244045,-0.945674 l 0.213539,-0.305055 q 0,-0.183034 -0.06101,-0.579607 -0.03051,-0.427078 -0.03051,-0.640617 0,0 0,-0.122022 0.03051,-0.152528 0.09152,-0.457584 l -0.152528,-0.244045 v -0.976179 h 1.311741 q 0.5491,0.457584 1.982863,0.549101 1.464268,0.09152 1.586291,0.213539 0.213539,0.396573 0.27455,0.671123 0.335561,0.5491 0.579606,0.579606 0.244045,0.03051 0.457584,0.03051 0.213539,0 0.427078,0.03051 0.366067,-0.183033 0.48809,-0.305056 V 62.71034 q 0,-0.122023 0.152528,-0.335562 0.152528,-0.244044 0.152528,-0.427078 0,-0.152528 -0.152528,-0.427078 -0.152528,-0.274551 -0.152528,-0.396573 0,-1.098201 0,-1.372751 0.03051,-0.274551 0.06101,0.27455 -0.06101,-0.76264 -0.366067,-1.006685 -0.122023,-0.06101 -0.213539,-0.09152 -0.09152,-0.03051 -0.152528,-0.06101 -0.335562,-0.244044 -0.396573,-0.244044 -0.183033,0 -0.396573,0.396572 -0.06101,0.152528 -0.152528,0.305056 -0.09152,0.122023 -0.152527,0.274551 -0.366068,1.830335 -0.823651,1.830335 0,0 -0.244045,-0.09152 -0.244045,-0.122022 -0.366067,-0.122022 -0.183034,0 -0.457584,0.183033 -0.244045,0.152528 -0.396573,0.152528 H 91.637999 Q 91.515977,61.4291 91.42446,61.368089 q -0.09152,-0.09152 -0.183033,-0.152528 0,-0.335562 0,-0.823651 0.03051,-0.518595 0.06101,-1.189718 0.09152,-1.31174 0.09152,-2.013369 0,-0.152528 -0.06101,-0.396573 -0.03051,-0.27455 -0.09152,-0.5491 -0.03051,-0.305056 -0.09152,-0.549101 -0.03051,-0.27455 -0.03051,-0.457584 0,-0.06101 0.518595,-1.189718 h 0.945674 l 0.305055,0.244045 q 0.549101,-0.244045 1.281235,-0.244045 0.06101,0.03051 0.183034,0.122023 0.122022,0.06101 0.183033,0.06101 1.403257,0 1.769325,0 0.396572,-0.03051 -0.244045,-0.06101 1.03719,0.06101 1.372751,0.457583 0.122023,0.152528 0.48809,1.372752 0.27455,1.006684 0.945673,1.464268 0.305056,0.244045 0.48809,0.396573 0.701633,-0.366067 1.067693,-0.610112 V 54.99241 q 0.5491,-0.457583 0.5491,-1.464268 0,-0.06101 -0.42708,-1.860841 -0.0915,-0.152528 -0.39657,-0.152528 -0.366065,0 -0.762638,0.48809 -0.427078,0.457583 -0.854156,0.457583 -0.152528,0 -0.48809,-0.0305 -0.305056,-0.06101 -0.457584,-0.06101 -0.244044,0 -0.640617,0.06101 -0.396573,0.0305 -0.915168,0.09152 -0.518595,0.06101 -0.915167,0.122022 -0.366068,0.03051 -0.640618,0.03051 -0.244045,0 -0.5491,-0.03051 -0.274551,-0.03051 -0.579607,-0.09152 -0.06101,0.03051 -0.27455,0.06101 -0.183034,0.03051 -0.488089,0.09152 -0.457584,0.122023 -0.732135,0.122023 -0.183033,0 -0.305056,-0.09152 -0.06101,-0.03051 -0.09152,-0.03051 -0.03051,0 -0.06101,-0.0305 -0.884662,0 -1.494773,0 -0.579607,-0.03051 -0.915168,-0.06101 -0.701629,-0.09152 -2.196403,-0.518595 -0.06101,0.03051 -0.244044,0.152528 -0.152528,0.122023 -0.396573,0.335562 -0.457584,0.427078 -0.457584,0.579606 0,0.488089 0.854157,0.793145 0.732134,0.274551 1.31174,0.274551 0,0.122022 0.06101,0.335561 0.09152,0.213539 0.09152,0.274551 v 1.067695 q 0,0 -0.06101,0.183034 -0.03051,0.183033 -0.09152,0.5491 l 0.152528,0.183034 q 0,0.76264 -0.244045,1.586291 l 0.305056,0.152528 q -0.03051,0.152527 -0.09152,0.396572 -0.03051,0.244045 -0.122022,0.610112 -0.183034,0.610112 -0.183034,1.006685 0,0.457583 0.183034,0.854156 v 1.79983 q -0.06101,0.06101 -0.152528,0.122022 -0.06101,0.06101 -0.122022,0.122023 -0.03051,0.122022 -0.06101,0.213539 0,0.09152 0,0.213539 0,0.183033 0.0305,0.457584 0.06101,0.27455 0.122022,0.579606 0.06101,0.27455 0.09152,0.579606 0.06101,0.27455 0.06101,0.457584 0,1.250729 -0.122022,1.586291 -0.152528,0.244044 -0.244045,0.335561 l -0.03051,0.183034 q 0,0.06101 0,0.183033 0,0.09152 0.03051,0.244045 0.03051,0.152528 0.03051,0.27455 0.03051,0.09152 0.03051,0.152528 0,0.244045 -0.122023,0.610112 -0.610112,0 -1.189718,0.27455 -0.701628,0.366067 -0.701628,0.915168 0,0.305056 0.183033,0.76264 l 3.630165,0.183033 q 0.305056,0 0.915168,-0.122022 0.610112,-0.122022 0.976179,-0.122022 0.366067,0 0.76264,0.122022 0.396572,0.122022 0.427078,0.122022 -0.09152,0 0.152528,0 0.244045,0 0.854156,-0.0305 0.396573,-0.03051 0.732135,0 0.335561,0 0.579606,0.0305 0.793145,0.06101 1.098201,0.244045 h 2.531964 q 0.183034,-0.183033 0.27455,-0.244045 0.09152,-0.0305 0.21354,-0.0305 0.854156,0.27455 1.250727,0.27455 1.03719,0 1.03719,-0.76264 0,-0.122022 -0.0915,-0.335561 -0.0915,-0.244045 -0.0915,-0.366067 0,-0.671123 0.94567,-1.982864 0.0915,-0.762639 0.27455,-1.006684 z" />
        <path
           inkscape:connector-curvature="0"
           id="path1090"
           style="font-style:normal;font-variant:normal;font-weight:normal;font-stretch:normal;font-size:30.5056px;line-height:1;font-family:'Roman Antique';-inkscape-font-specification:'Roman Antique';text-align:center;letter-spacing:0px;word-spacing:0px;text-anchor:middle;fill:#808080;fill-opacity:1;stroke:none;stroke-width:0.253936"
           d="m 115.3561,65.943917 q -0.30506,-0.488089 -0.45759,-1.403257 -0.24404,-1.31174 -0.30505,-1.464268 -0.12202,-0.396573 -0.5491,-0.76264 -0.33556,-0.27455 -0.5186,-0.427078 -0.18303,-0.152528 -0.21354,-0.183034 -0.15253,-0.213539 -0.27455,-0.335561 -0.0915,-0.152528 -0.15253,-0.27455 -0.12202,-0.06101 -0.21353,-0.06101 -0.42708,0 -0.36607,0.03051 -0.24405,-0.244045 -0.45759,-0.427078 -0.18303,-0.213539 -0.30505,-0.366067 -0.30506,-0.122023 -0.57961,-0.183034 -0.42708,-0.366067 -0.85415,-0.76264 -0.39658,-0.427078 -0.73214,-0.915167 -0.45758,-0.549101 -0.5796,-0.579607 -0.39658,-0.122022 -0.79315,-0.244044 -0.39657,-0.122023 -0.64062,-0.396573 -0.15253,-0.152528 -0.36606,-0.884662 -0.21354,-0.732134 -0.21354,-0.976179 0,-0.06101 0.18303,-0.427078 0.24404,-0.48809 0.36607,-0.732134 0.15253,-0.274551 0.18303,-0.305056 0.30506,-0.457584 0.91517,-0.671123 0.0305,-0.03051 0.24404,-0.183034 0.24405,-0.152528 0.30506,-0.152528 0.30505,0 0.67112,0.366067 0.24405,0.09152 0.39657,0.152528 0.18304,0.06101 0.30506,0.09152 h 0.33556 l 0.15253,0.06101 q 0.12202,0.244045 0.18303,0.457584 0.0915,0.213539 0.15253,0.366067 l 0.45759,0.457584 q 0.48808,0.457584 0.82365,0.823651 0.33556,0.335561 0.5491,0.579606 0.0305,0.152528 0.15252,0.396573 0.12203,0.305056 0.64062,0.305056 0.82365,0 0.82365,-0.976179 0,-0.152528 -0.061,-0.48809 -0.0305,-0.366067 -0.0305,-0.5491 0,-0.244045 0.0915,-0.732134 0.12203,-0.48809 0.12203,-0.732135 0,-0.732134 -0.94568,-1.281234 -0.15253,0.0305 -0.48809,0.27455 -0.24404,0.183033 -0.5796,0.183033 -0.21354,0 -1.40326,-0.518595 -1.15921,-0.5491 -1.79983,-0.5491 -0.33556,0 -1.43376,0.335561 -0.48809,0.09152 -0.85416,0.152528 -0.36607,0.03051 -0.61011,0.06101 -0.24405,0.152528 -0.42708,0.305056 -0.15253,0.122023 -0.27455,0.213539 -0.30506,0.152528 -0.5186,0.274551 -0.18303,0.09152 -0.33556,0.152528 -0.18303,0.335561 -0.24404,0.579606 l -0.42708,0.27455 q -0.12202,0.183034 -0.18303,0.518595 -0.24405,0.671123 -0.30506,0.76264 -0.0915,0.27455 -0.15253,0.488089 -0.061,0.21354 -0.12202,0.366068 0.18303,0.884662 0.48809,1.342246 0.0305,0.06101 0.0305,0.122022 0,0.03051 0,0.03051 0,0.549101 0.061,0.732135 0.15252,0.183033 0.27455,0.366067 0.12202,0.183033 0.27455,0.335561 0.0305,0.122023 0.0305,0.213539 0,0.09152 0.0305,0.152528 0.24404,0.335562 0.42708,0.610112 0.18303,0.27455 0.33556,0.427078 0.12202,0.152528 0.70163,0.549101 0.36606,0.27455 0.5796,0.671123 0.79315,0.152528 0.97618,0.457584 0.18304,0.244045 0.33556,0.427078 0.15253,0.152528 0.30506,0.27455 0.15253,0.06101 0.24404,0.09152 0.12203,0 0.21354,0.03051 0.24405,0.213539 0.42708,0.396572 0.18304,0.152528 0.30506,0.274551 0.061,0.305056 0.061,0.366067 0.18303,0.305056 0.51859,0.457584 0.24405,0.122022 0.39658,0.183033 0.18303,0.06101 0.24404,0.122023 0.33556,0.366067 0.5491,0.640617 0.21354,0.27455 0.33556,0.427078 0.36607,0.213539 0.5186,0.244045 0.39657,0.488089 0.39657,1.494774 0,1.03719 -0.61011,1.555785 l -1.37275,0.457584 q -0.61011,0.427078 -1.03719,0.427078 0.24404,0 -0.67113,-0.183033 -0.45758,-0.06101 -0.70162,0 -1.03719,-0.48809 -1.49478,-0.823651 l 0.15253,-0.518595 q -0.27455,-0.06101 -0.33556,-0.335562 -0.061,-0.305056 -0.12202,-0.579606 -1.00669,-0.793145 -1.0677,-1.006685 -0.12202,-0.945673 -0.27455,-1.128706 -0.24404,-0.335562 -1.00668,-0.335562 -0.70163,0 -0.94568,0.335562 -0.061,1.372751 -0.21354,2.318424 -0.12202,0.915168 -0.27455,1.433763 -0.0915,0.274551 0.36607,1.311741 0,1.128706 0.70163,1.128706 0.73213,0 1.06769,-0.610111 0.33557,-0.610112 0.5491,-0.610112 0.30506,0 0.91517,0.488089 0.79315,0.610112 0.88466,0.640618 0.85416,0.366067 2.53197,0.366067 0.18303,0 0.51859,-0.09152 0.39658,-0.06101 0.5186,-0.09152 0.24404,-0.03051 0.48809,-0.03051 0.24404,0 0.48809,-0.03051 0.33556,-0.03051 0.94567,-0.457584 0.79315,-0.732134 1.0677,-1.098201 0.51859,-0.27455 0.70163,-0.945673 0.12202,-0.518595 0.21353,-0.915168 0.0915,-0.427078 0.15253,-0.671123 0.21354,-0.366067 0.36607,-0.732134 0.0305,-0.06101 0.061,-0.244045 0.0305,-0.213539 0.0915,-0.549101 z" />
        <path
           inkscape:connector-curvature="0"
           id="path1092"
           style="font-style:normal;font-variant:normal;font-weight:normal;font-stretch:normal;font-size:30.5056px;line-height:1;font-family:'Roman Antique';-inkscape-font-specification:'Roman Antique';text-align:center;letter-spacing:0px;word-spacing:0px;text-anchor:middle;fill:#808080;fill-opacity:1;stroke:none;stroke-width:0.253936"
           d="m 136.17187,52.826514 q 0,-0.09152 -0.0915,-0.244045 -0.0915,-0.183034 -0.24405,-0.335562 -0.12202,-0.152528 -0.27455,-0.244044 -0.15253,-0.122023 -0.27455,-0.122023 -0.18303,0 -0.85415,0.244045 -0.67113,0.244045 -0.97618,0.244045 -0.39658,0 -1.00669,-0.213539 -0.64062,-0.244045 -0.82365,-0.244045 l -1.73882,0.06101 -0.30505,0.183034 q -0.61012,-0.09152 -1.0677,-0.152528 -0.45758,-0.06101 -0.76264,-0.09152 h -3.17258 q -2.07438,0 -2.53196,-0.48809 l -0.39658,0.06101 -0.24404,0.152528 q -0.45759,-0.244045 -2.13539,-0.21354 -0.85416,0.396573 -1.0677,0.579607 l -0.061,0.366067 q -0.82365,0.762639 -1.03719,1.159212 -0.12202,0.335562 -0.21354,0.701629 -0.0915,0.366067 -0.21354,0.732134 -0.0305,0.06101 -0.12202,0.183033 -0.061,0.122023 -0.18303,0.274551 -0.18304,0.27455 -0.18304,0.610112 0,1.403257 0.79315,1.403257 0.33556,0 1.31174,-1.159213 0.91517,-1.098201 1.0982,-1.555785 h 0.12202 q 0.76264,0 1.58629,-0.305056 0.82365,-0.305056 0.91517,-0.305056 0.18303,0 0.39657,0.152528 0.24405,0.152528 0.36607,0.152528 0.30506,0 0.5491,-0.213539 0.27455,-0.244045 0.48809,-0.244045 0.24404,0 0.76264,0.549101 l -0.18303,0.396573 q -0.0305,0.335561 0.061,1.03719 0.061,0.396572 0.0915,0.671123 0.0305,0.244044 0.0305,0.396572 -0.061,0.610112 -0.12202,1.037191 -0.0305,0.427078 -0.0305,0.732134 0,0.09152 -0.15253,0.762639 -0.12202,0.396573 -0.12202,0.793146 0.0915,0.122022 0.15253,0.366067 -0.18303,0.457584 -0.18303,0.488089 v 2.470953 q 0,0.09152 0.0915,0.27455 0.0915,0.183034 0.0915,0.21354 0,0.122022 -0.061,0.335561 -0.061,0.183034 -0.061,0.27455 0,0.152528 0.0305,0.518595 0.061,0.335562 0.061,0.549101 -0.45758,0.457584 -0.45758,0.76264 0,0.244045 0.15253,0.701628 0.15253,0.427079 0.15253,0.610112 0,1.616797 -2.28792,1.616797 -0.061,0.27455 -0.27455,0.488089 -0.18304,0.183033 -0.18304,0.518595 0,0.244045 0.061,0.488089 0.21354,0.671123 2.74551,0.671123 0.76264,0 1.00668,0 0.27455,0 0.061,0.03051 0.5491,-0.06101 0.94568,-0.305056 0.21354,0.09152 0.36606,0.183034 0.30506,0.06101 0.82365,0.09152 h 1.92186 q 0.0915,0 0.30505,0.06101 0.21354,0.06101 0.33556,0.06101 0.18304,0 0.33557,-0.366067 -0.0915,-1.189718 -0.97618,-1.708313 -0.88467,-0.549101 -0.88467,-0.915168 0,-0.152528 0.18304,-0.335562 -0.18304,-0.09152 -0.33556,-1.098201 -0.0305,-0.27455 -0.061,-0.5491 0,-0.274551 -0.0305,-0.579607 -0.15253,-0.488089 -0.18303,-0.732134 0.0305,-0.06101 0.18303,-0.335561 0.12202,-0.122023 0.12202,-0.48809 0,-0.305056 0,-0.76264 0.0305,-0.488089 0.061,-1.159212 l -0.12202,-0.244045 q -0.0915,-1.342246 -0.24404,-1.433762 v -1.067696 l 0.21353,-0.396573 q 0.0915,-0.732134 -0.21353,-1.647302 0.45758,-1.220223 0.45758,-2.562469 0,-0.183034 -0.30506,-0.915168 0,-0.122022 0.36607,-0.549101 h 2.07438 q 0.21354,0 0.82365,0.274551 0.67112,0.244044 0.88466,0.244044 0.70163,0 1.34225,0.701629 0.70163,0.701629 1.03719,0.701629 1.00668,0 1.49477,-3.050559 z" />
      </g>
    </g>
    <text
       xml:space="preserve"
       style="font-style:normal;font-variant:normal;font-weight:normal;font-stretch:normal;font-size:10.5833px;line-height:1.25;font-family:'Ubuntu Condensed';-inkscape-font-specification:'Ubuntu Condensed, ';letter-spacing:0px;word-spacing:0px;fill:#000000;fill-opacity:1;stroke:none;stroke-width:0.264583"
       x="104.32143"
       y="67.19046"
       id="text845" />
  </g>
</svg>
